<?xml version="1.0" encoding="utf-8" standalone="no"?>
<!DOCTYPE svg PUBLIC "-//W3C//DTD SVG 1.1//EN"
  "http://www.w3.org/Graphics/SVG/1.1/DTD/svg11.dtd">
<svg xmlns:xlink="http://www.w3.org/1999/xlink" width="460.8pt" height="345.6pt" viewBox="0 0 460.8 345.6" xmlns="http://www.w3.org/2000/svg" version="1.1">
 <metadata>
  <rdf:RDF xmlns:dc="http://purl.org/dc/elements/1.1/" xmlns:cc="http://creativecommons.org/ns#" xmlns:rdf="http://www.w3.org/1999/02/22-rdf-syntax-ns#">
   <cc:Work>
    <dc:type rdf:resource="http://purl.org/dc/dcmitype/StillImage"/>
    <dc:date>2022-05-09T16:52:16.052817</dc:date>
    <dc:format>image/svg+xml</dc:format>
    <dc:creator>
     <cc:Agent>
      <dc:title>Matplotlib v3.5.1, https://matplotlib.org/</dc:title>
     </cc:Agent>
    </dc:creator>
   </cc:Work>
  </rdf:RDF>
 </metadata>
 <defs>
  <style type="text/css">*{stroke-linejoin: round; stroke-linecap: butt}</style>
 </defs>
 <g id="figure_1">
  <g id="patch_1">
   <path d="M 0 345.6 
L 460.8 345.6 
L 460.8 0 
L 0 0 
z
" style="fill: #ffffff"/>
  </g>
  <g id="axes_1">
   <g id="patch_2">
    <path d="M 57.6 307.584 
L 414.72 307.584 
L 414.72 41.472 
L 57.6 41.472 
z
" style="fill: #ffffff"/>
   </g>
   <g id="PolyCollection_1">
    <path d="M 57.6 41.472 
L 57.6 74.736 
L 102.24 74.736 
L 102.24 41.472 
L 57.6 41.472 
z
" clip-path="url(#p181e331b6d)" style="fill: #7f0000"/>
    <path d="M 102.24 41.472 
L 102.24 74.736 
L 146.88 74.736 
L 146.88 41.472 
L 102.24 41.472 
z
" clip-path="url(#p181e331b6d)" style="fill: #7f0000"/>
    <path d="M 146.88 41.472 
L 146.88 74.736 
L 191.52 74.736 
L 191.52 41.472 
L 146.88 41.472 
z
" clip-path="url(#p181e331b6d)" style="fill: #7f0000"/>
    <path d="M 191.52 41.472 
L 191.52 74.736 
L 236.16 74.736 
L 236.16 41.472 
L 191.52 41.472 
z
" clip-path="url(#p181e331b6d)" style="fill: #7f0000"/>
    <path d="M 236.16 41.472 
L 236.16 74.736 
L 280.8 74.736 
L 280.8 41.472 
L 236.16 41.472 
z
" clip-path="url(#p181e331b6d)" style="fill: #7f0000"/>
    <path d="M 280.8 41.472 
L 280.8 74.736 
L 325.44 74.736 
L 325.44 41.472 
L 280.8 41.472 
z
" clip-path="url(#p181e331b6d)" style="fill: #7f0000"/>
    <path d="M 325.44 41.472 
L 325.44 74.736 
L 370.08 74.736 
L 370.08 41.472 
L 325.44 41.472 
z
" clip-path="url(#p181e331b6d)" style="fill: #7f0000"/>
    <path d="M 370.08 41.472 
L 370.08 74.736 
L 414.72 74.736 
L 414.72 41.472 
L 370.08 41.472 
z
" clip-path="url(#p181e331b6d)" style="fill: #7f0000"/>
    <path d="M 57.6 74.736 
L 57.6 108 
L 102.24 108 
L 102.24 74.736 
L 57.6 74.736 
z
" clip-path="url(#p181e331b6d)" style="fill: #7f0000"/>
    <path d="M 102.24 74.736 
L 102.24 108 
L 146.88 108 
L 146.88 74.736 
L 102.24 74.736 
z
" clip-path="url(#p181e331b6d)" style="fill: #fff7ec"/>
    <path d="M 146.88 74.736 
L 146.88 108 
L 191.52 108 
L 191.52 74.736 
L 146.88 74.736 
z
" clip-path="url(#p181e331b6d)" style="fill: #fff7ec"/>
    <path d="M 191.52 74.736 
L 191.52 108 
L 236.16 108 
L 236.16 74.736 
L 191.52 74.736 
z
" clip-path="url(#p181e331b6d)" style="fill: #fff7ec"/>
    <path d="M 236.16 74.736 
L 236.16 108 
L 280.8 108 
L 280.8 74.736 
L 236.16 74.736 
z
" clip-path="url(#p181e331b6d)" style="fill: #fff7ec"/>
    <path d="M 280.8 74.736 
L 280.8 108 
L 325.44 108 
L 325.44 74.736 
L 280.8 74.736 
z
" clip-path="url(#p181e331b6d)" style="fill: #fff7ec"/>
    <path d="M 325.44 74.736 
L 325.44 108 
L 370.08 108 
L 370.08 74.736 
L 325.44 74.736 
z
" clip-path="url(#p181e331b6d)" style="fill: #fff7ec"/>
    <path d="M 370.08 74.736 
L 370.08 108 
L 414.72 108 
L 414.72 74.736 
L 370.08 74.736 
z
" clip-path="url(#p181e331b6d)" style="fill: #7f0000"/>
    <path d="M 57.6 108 
L 57.6 141.264 
L 102.24 141.264 
L 102.24 108 
L 57.6 108 
z
" clip-path="url(#p181e331b6d)" style="fill: #7f0000"/>
    <path d="M 102.24 108 
L 102.24 141.264 
L 146.88 141.264 
L 146.88 108 
L 102.24 108 
z
" clip-path="url(#p181e331b6d)" style="fill: #fff7ec"/>
    <path d="M 146.88 108 
L 146.88 141.264 
L 191.52 141.264 
L 191.52 108 
L 146.88 108 
z
" clip-path="url(#p181e331b6d)" style="fill: #7f0000"/>
    <path d="M 191.52 108 
L 191.52 141.264 
L 236.16 141.264 
L 236.16 108 
L 191.52 108 
z
" clip-path="url(#p181e331b6d)" style="fill: #7f0000"/>
    <path d="M 236.16 108 
L 236.16 141.264 
L 280.8 141.264 
L 280.8 108 
L 236.16 108 
z
" clip-path="url(#p181e331b6d)" style="fill: #fff7ec"/>
    <path d="M 280.8 108 
L 280.8 141.264 
L 325.44 141.264 
L 325.44 108 
L 280.8 108 
z
" clip-path="url(#p181e331b6d)" style="fill: #fff7ec"/>
    <path d="M 325.44 108 
L 325.44 141.264 
L 370.08 141.264 
L 370.08 108 
L 325.44 108 
z
" clip-path="url(#p181e331b6d)" style="fill: #fff7ec"/>
    <path d="M 370.08 108 
L 370.08 141.264 
L 414.72 141.264 
L 414.72 108 
L 370.08 108 
z
" clip-path="url(#p181e331b6d)" style="fill: #7f0000"/>
    <path d="M 57.6 141.264 
L 57.6 174.528 
L 102.24 174.528 
L 102.24 141.264 
L 57.6 141.264 
z
" clip-path="url(#p181e331b6d)" style="fill: #7f0000"/>
    <path d="M 102.24 141.264 
L 102.24 174.528 
L 146.88 174.528 
L 146.88 141.264 
L 102.24 141.264 
z
" clip-path="url(#p181e331b6d)" style="fill: #fff7ec"/>
    <path d="M 146.88 141.264 
L 146.88 174.528 
L 191.52 174.528 
L 191.52 141.264 
L 146.88 141.264 
z
" clip-path="url(#p181e331b6d)" style="fill: #7f0000"/>
    <path d="M 191.52 141.264 
L 191.52 174.528 
L 236.16 174.528 
L 236.16 141.264 
L 191.52 141.264 
z
" clip-path="url(#p181e331b6d)" style="fill: #7f0000"/>
    <path d="M 236.16 141.264 
L 236.16 174.528 
L 280.8 174.528 
L 280.8 141.264 
L 236.16 141.264 
z
" clip-path="url(#p181e331b6d)" style="fill: #fff7ec"/>
    <path d="M 280.8 141.264 
L 280.8 174.528 
L 325.44 174.528 
L 325.44 141.264 
L 280.8 141.264 
z
" clip-path="url(#p181e331b6d)" style="fill: #fff7ec"/>
    <path d="M 325.44 141.264 
L 325.44 174.528 
L 370.08 174.528 
L 370.08 141.264 
L 325.44 141.264 
z
" clip-path="url(#p181e331b6d)" style="fill: #fff7ec"/>
    <path d="M 370.08 141.264 
L 370.08 174.528 
L 414.72 174.528 
L 414.72 141.264 
L 370.08 141.264 
z
" clip-path="url(#p181e331b6d)" style="fill: #7f0000"/>
    <path d="M 57.6 174.528 
L 57.6 207.792 
L 102.24 207.792 
L 102.24 174.528 
L 57.6 174.528 
z
" clip-path="url(#p181e331b6d)" style="fill: #7f0000"/>
    <path d="M 102.24 174.528 
L 102.24 207.792 
L 146.88 207.792 
L 146.88 174.528 
L 102.24 174.528 
z
" clip-path="url(#p181e331b6d)" style="fill: #fff7ec"/>
    <path d="M 146.88 174.528 
L 146.88 207.792 
L 191.52 207.792 
L 191.52 174.528 
L 146.88 174.528 
z
" clip-path="url(#p181e331b6d)" style="fill: #7f0000"/>
    <path d="M 191.52 174.528 
L 191.52 207.792 
L 236.16 207.792 
L 236.16 174.528 
L 191.52 174.528 
z
" clip-path="url(#p181e331b6d)" style="fill: #7f0000"/>
    <path d="M 236.16 174.528 
L 236.16 207.792 
L 280.8 207.792 
L 280.8 174.528 
L 236.16 174.528 
z
" clip-path="url(#p181e331b6d)" style="fill: #fff7ec"/>
    <path d="M 280.8 174.528 
L 280.8 207.792 
L 325.44 207.792 
L 325.44 174.528 
L 280.8 174.528 
z
" clip-path="url(#p181e331b6d)" style="fill: #fff7ec"/>
    <path d="M 325.44 174.528 
L 325.44 207.792 
L 370.08 207.792 
L 370.08 174.528 
L 325.44 174.528 
z
" clip-path="url(#p181e331b6d)" style="fill: #fff7ec"/>
    <path d="M 370.08 174.528 
L 370.08 207.792 
L 414.72 207.792 
L 414.72 174.528 
L 370.08 174.528 
z
" clip-path="url(#p181e331b6d)" style="fill: #7f0000"/>
    <path d="M 57.6 207.792 
L 57.6 241.056 
L 102.24 241.056 
L 102.24 207.792 
L 57.6 207.792 
z
" clip-path="url(#p181e331b6d)" style="fill: #7f0000"/>
    <path d="M 102.24 207.792 
L 102.24 241.056 
L 146.88 241.056 
L 146.88 207.792 
L 102.24 207.792 
z
" clip-path="url(#p181e331b6d)" style="fill: #fff7ec"/>
    <path d="M 146.88 207.792 
L 146.88 241.056 
L 191.52 241.056 
L 191.52 207.792 
L 146.88 207.792 
z
" clip-path="url(#p181e331b6d)" style="fill: #7f0000"/>
    <path d="M 191.52 207.792 
L 191.52 241.056 
L 236.16 241.056 
L 236.16 207.792 
L 191.52 207.792 
z
" clip-path="url(#p181e331b6d)" style="fill: #7f0000"/>
    <path d="M 236.16 207.792 
L 236.16 241.056 
L 280.8 241.056 
L 280.8 207.792 
L 236.16 207.792 
z
" clip-path="url(#p181e331b6d)" style="fill: #fff7ec"/>
    <path d="M 280.8 207.792 
L 280.8 241.056 
L 325.44 241.056 
L 325.44 207.792 
L 280.8 207.792 
z
" clip-path="url(#p181e331b6d)" style="fill: #fff7ec"/>
    <path d="M 325.44 207.792 
L 325.44 241.056 
L 370.08 241.056 
L 370.08 207.792 
L 325.44 207.792 
z
" clip-path="url(#p181e331b6d)" style="fill: #fff7ec"/>
    <path d="M 370.08 207.792 
L 370.08 241.056 
L 414.72 241.056 
L 414.72 207.792 
L 370.08 207.792 
z
" clip-path="url(#p181e331b6d)" style="fill: #7f0000"/>
    <path d="M 57.6 241.056 
L 57.6 274.32 
L 102.24 274.32 
L 102.24 241.056 
L 57.6 241.056 
z
" clip-path="url(#p181e331b6d)" style="fill: #7f0000"/>
    <path d="M 102.24 241.056 
L 102.24 274.32 
L 146.88 274.32 
L 146.88 241.056 
L 102.24 241.056 
z
" clip-path="url(#p181e331b6d)" style="fill: #fff7ec"/>
    <path d="M 146.88 241.056 
L 146.88 274.32 
L 191.52 274.32 
L 191.52 241.056 
L 146.88 241.056 
z
" clip-path="url(#p181e331b6d)" style="fill: #fff7ec"/>
    <path d="M 191.52 241.056 
L 191.52 274.32 
L 236.16 274.32 
L 236.16 241.056 
L 191.52 241.056 
z
" clip-path="url(#p181e331b6d)" style="fill: #fff7ec"/>
    <path d="M 236.16 241.056 
L 236.16 274.32 
L 280.8 274.32 
L 280.8 241.056 
L 236.16 241.056 
z
" clip-path="url(#p181e331b6d)" style="fill: #fff7ec"/>
    <path d="M 280.8 241.056 
L 280.8 274.32 
L 325.44 274.32 
L 325.44 241.056 
L 280.8 241.056 
z
" clip-path="url(#p181e331b6d)" style="fill: #fff7ec"/>
    <path d="M 325.44 241.056 
L 325.44 274.32 
L 370.08 274.32 
L 370.08 241.056 
L 325.44 241.056 
z
" clip-path="url(#p181e331b6d)" style="fill: #fff7ec"/>
    <path d="M 370.08 241.056 
L 370.08 274.32 
L 414.72 274.32 
L 414.72 241.056 
L 370.08 241.056 
z
" clip-path="url(#p181e331b6d)" style="fill: #7f0000"/>
    <path d="M 57.6 274.32 
L 57.6 307.584 
L 102.24 307.584 
L 102.24 274.32 
L 57.6 274.32 
z
" clip-path="url(#p181e331b6d)" style="fill: #7f0000"/>
    <path d="M 102.24 274.32 
L 102.24 307.584 
L 146.88 307.584 
L 146.88 274.32 
L 102.24 274.32 
z
" clip-path="url(#p181e331b6d)" style="fill: #7f0000"/>
    <path d="M 146.88 274.32 
L 146.88 307.584 
L 191.52 307.584 
L 191.52 274.32 
L 146.88 274.32 
z
" clip-path="url(#p181e331b6d)" style="fill: #7f0000"/>
    <path d="M 191.52 274.32 
L 191.52 307.584 
L 236.16 307.584 
L 236.16 274.32 
L 191.52 274.32 
z
" clip-path="url(#p181e331b6d)" style="fill: #7f0000"/>
    <path d="M 236.16 274.32 
L 236.16 307.584 
L 280.8 307.584 
L 280.8 274.32 
L 236.16 274.32 
z
" clip-path="url(#p181e331b6d)" style="fill: #7f0000"/>
    <path d="M 280.8 274.32 
L 280.8 307.584 
L 325.44 307.584 
L 325.44 274.32 
L 280.8 274.32 
z
" clip-path="url(#p181e331b6d)" style="fill: #7f0000"/>
    <path d="M 325.44 274.32 
L 325.44 307.584 
L 370.08 307.584 
L 370.08 274.32 
L 325.44 274.32 
z
" clip-path="url(#p181e331b6d)" style="fill: #7f0000"/>
    <path d="M 370.08 274.32 
L 370.08 307.584 
L 414.72 307.584 
L 414.72 274.32 
L 370.08 274.32 
z
" clip-path="url(#p181e331b6d)" style="fill: #7f0000"/>
   </g>
   <g id="patch_3">
    <path d="M 129.024 91.368 
L 120.096 88.0416 
L 120.096 91.351368 
L 124.56 91.351368 
L 124.56 91.384632 
L 120.096 91.384632 
L 120.096 94.6944 
z
" clip-path="url(#p181e331b6d)" style="fill: #0000ff; stroke: #0000ff; stroke-width: 0.1; stroke-linejoin: miter"/>
   </g>
   <g id="patch_4">
    <path d="M 173.664 91.368 
L 164.736 88.0416 
L 164.736 91.351368 
L 169.2 91.351368 
L 169.2 91.384632 
L 164.736 91.384632 
L 164.736 94.6944 
z
" clip-path="url(#p181e331b6d)" style="fill: #0000ff; stroke: #0000ff; stroke-width: 0.1; stroke-linejoin: miter"/>
   </g>
   <g id="patch_5">
    <path d="M 218.304 91.368 
L 209.376 88.0416 
L 209.376 91.351368 
L 213.84 91.351368 
L 213.84 91.384632 
L 209.376 91.384632 
L 209.376 94.6944 
z
" clip-path="url(#p181e331b6d)" style="fill: #0000ff; stroke: #0000ff; stroke-width: 0.1; stroke-linejoin: miter"/>
   </g>
   <g id="patch_6">
    <path d="M 258.48 94.6944 
L 262.944 88.0416 
L 258.50232 88.0416 
L 258.50232 91.368 
L 258.45768 91.368 
L 258.45768 88.0416 
L 254.016 88.0416 
z
" clip-path="url(#p181e331b6d)" style="fill: #0000ff; stroke: #0000ff; stroke-width: 0.1; stroke-linejoin: miter"/>
   </g>
   <g id="patch_7">
    <path d="M 303.12 94.6944 
L 307.584 88.0416 
L 303.14232 88.0416 
L 303.14232 91.368 
L 303.09768 91.368 
L 303.09768 88.0416 
L 298.656 88.0416 
z
" clip-path="url(#p181e331b6d)" style="fill: #0000ff; stroke: #0000ff; stroke-width: 0.1; stroke-linejoin: miter"/>
   </g>
   <g id="patch_8">
    <path d="M 347.76 94.6944 
L 352.224 88.0416 
L 347.78232 88.0416 
L 347.78232 91.368 
L 347.73768 91.368 
L 347.73768 88.0416 
L 343.296 88.0416 
z
" clip-path="url(#p181e331b6d)" style="fill: #0000ff; stroke: #0000ff; stroke-width: 0.1; stroke-linejoin: miter"/>
   </g>
   <g id="patch_9">
    <path d="M 124.56 121.3056 
L 120.096 127.9584 
L 124.53768 127.9584 
L 124.53768 124.632 
L 124.58232 124.632 
L 124.58232 127.9584 
L 129.024 127.9584 
z
" clip-path="url(#p181e331b6d)" style="fill: #0000ff; stroke: #0000ff; stroke-width: 0.1; stroke-linejoin: miter"/>
   </g>
   <g id="patch_10">
    <path d="M 262.944 124.632 
L 254.016 121.3056 
L 254.016 124.615368 
L 258.48 124.615368 
L 258.48 124.648632 
L 254.016 124.648632 
L 254.016 127.9584 
z
" clip-path="url(#p181e331b6d)" style="fill: #0000ff; stroke: #0000ff; stroke-width: 0.1; stroke-linejoin: miter"/>
   </g>
   <g id="patch_11">
    <path d="M 303.12 127.9584 
L 307.584 121.3056 
L 303.14232 121.3056 
L 303.14232 124.632 
L 303.09768 124.632 
L 303.09768 121.3056 
L 298.656 121.3056 
z
" clip-path="url(#p181e331b6d)" style="fill: #0000ff; stroke: #0000ff; stroke-width: 0.1; stroke-linejoin: miter"/>
   </g>
   <g id="patch_12">
    <path d="M 343.296 124.632 
L 352.224 127.9584 
L 352.224 124.648632 
L 347.76 124.648632 
L 347.76 124.615368 
L 352.224 124.615368 
L 352.224 121.3056 
z
" clip-path="url(#p181e331b6d)" style="fill: #0000ff; stroke: #0000ff; stroke-width: 0.1; stroke-linejoin: miter"/>
   </g>
   <g id="patch_13">
    <path d="M 124.56 161.2224 
L 129.024 154.5696 
L 124.58232 154.5696 
L 124.58232 157.896 
L 124.53768 157.896 
L 124.53768 154.5696 
L 120.096 154.5696 
z
" clip-path="url(#p181e331b6d)" style="fill: #0000ff; stroke: #0000ff; stroke-width: 0.1; stroke-linejoin: miter"/>
   </g>
   <g id="patch_14">
    <path d="M 262.944 157.896 
L 254.016 154.5696 
L 254.016 157.879368 
L 258.48 157.879368 
L 258.48 157.912632 
L 254.016 157.912632 
L 254.016 161.2224 
z
" clip-path="url(#p181e331b6d)" style="fill: #0000ff; stroke: #0000ff; stroke-width: 0.1; stroke-linejoin: miter"/>
   </g>
   <g id="patch_15">
    <path d="M 303.12 161.2224 
L 307.584 154.5696 
L 303.14232 154.5696 
L 303.14232 157.896 
L 303.09768 157.896 
L 303.09768 154.5696 
L 298.656 154.5696 
z
" clip-path="url(#p181e331b6d)" style="fill: #0000ff; stroke: #0000ff; stroke-width: 0.1; stroke-linejoin: miter"/>
   </g>
   <g id="patch_16">
    <path d="M 343.296 157.896 
L 352.224 161.2224 
L 352.224 157.912632 
L 347.76 157.912632 
L 347.76 157.879368 
L 352.224 157.879368 
L 352.224 154.5696 
z
" clip-path="url(#p181e331b6d)" style="fill: #0000ff; stroke: #0000ff; stroke-width: 0.1; stroke-linejoin: miter"/>
   </g>
   <g id="patch_17">
    <path d="M 124.56 194.4864 
L 129.024 187.8336 
L 124.58232 187.8336 
L 124.58232 191.16 
L 124.53768 191.16 
L 124.53768 187.8336 
L 120.096 187.8336 
z
" clip-path="url(#p181e331b6d)" style="fill: #0000ff; stroke: #0000ff; stroke-width: 0.1; stroke-linejoin: miter"/>
   </g>
   <g id="patch_18">
    <path d="M 262.944 191.16 
L 254.016 187.8336 
L 254.016 191.143368 
L 258.48 191.143368 
L 258.48 191.176632 
L 254.016 191.176632 
L 254.016 194.4864 
z
" clip-path="url(#p181e331b6d)" style="fill: #0000ff; stroke: #0000ff; stroke-width: 0.1; stroke-linejoin: miter"/>
   </g>
   <g id="patch_19">
    <path d="M 303.12 194.4864 
L 307.584 187.8336 
L 303.14232 187.8336 
L 303.14232 191.16 
L 303.09768 191.16 
L 303.09768 187.8336 
L 298.656 187.8336 
z
" clip-path="url(#p181e331b6d)" style="fill: #0000ff; stroke: #0000ff; stroke-width: 0.1; stroke-linejoin: miter"/>
   </g>
   <g id="patch_20">
    <path d="M 343.296 191.16 
L 352.224 194.4864 
L 352.224 191.176632 
L 347.76 191.176632 
L 347.76 191.143368 
L 352.224 191.143368 
L 352.224 187.8336 
z
" clip-path="url(#p181e331b6d)" style="fill: #0000ff; stroke: #0000ff; stroke-width: 0.1; stroke-linejoin: miter"/>
   </g>
   <g id="patch_21">
    <path d="M 124.56 227.7504 
L 129.024 221.0976 
L 124.58232 221.0976 
L 124.58232 224.424 
L 124.53768 224.424 
L 124.53768 221.0976 
L 120.096 221.0976 
z
" clip-path="url(#p181e331b6d)" style="fill: #0000ff; stroke: #0000ff; stroke-width: 0.1; stroke-linejoin: miter"/>
   </g>
   <g id="patch_22">
    <path d="M 258.48 227.7504 
L 262.944 221.0976 
L 258.50232 221.0976 
L 258.50232 224.424 
L 258.45768 224.424 
L 258.45768 221.0976 
L 254.016 221.0976 
z
" clip-path="url(#p181e331b6d)" style="fill: #0000ff; stroke: #0000ff; stroke-width: 0.1; stroke-linejoin: miter"/>
   </g>
   <g id="patch_23">
    <path d="M 298.656 224.424 
L 307.584 227.7504 
L 307.584 224.440632 
L 303.12 224.440632 
L 303.12 224.407368 
L 307.584 224.407368 
L 307.584 221.0976 
z
" clip-path="url(#p181e331b6d)" style="fill: #0000ff; stroke: #0000ff; stroke-width: 0.1; stroke-linejoin: miter"/>
   </g>
   <g id="patch_24">
    <path d="M 343.296 224.424 
L 352.224 227.7504 
L 352.224 224.440632 
L 347.76 224.440632 
L 347.76 224.407368 
L 352.224 224.407368 
L 352.224 221.0976 
z
" clip-path="url(#p181e331b6d)" style="fill: #0000ff; stroke: #0000ff; stroke-width: 0.1; stroke-linejoin: miter"/>
   </g>
   <g id="patch_25">
    <path d="M 129.024 257.688 
L 120.096 254.3616 
L 120.096 257.671368 
L 124.56 257.671368 
L 124.56 257.704632 
L 120.096 257.704632 
L 120.096 261.0144 
z
" clip-path="url(#p181e331b6d)" style="fill: #0000ff; stroke: #0000ff; stroke-width: 0.1; stroke-linejoin: miter"/>
   </g>
   <g id="patch_26">
    <path d="M 209.376 257.688 
L 218.304 261.0144 
L 218.304 257.704632 
L 213.84 257.704632 
L 213.84 257.671368 
L 218.304 257.671368 
L 218.304 254.3616 
z
" clip-path="url(#p181e331b6d)" style="fill: #0000ff; stroke: #0000ff; stroke-width: 0.1; stroke-linejoin: miter"/>
   </g>
   <g id="patch_27">
    <path d="M 254.016 257.688 
L 262.944 261.0144 
L 262.944 257.704632 
L 258.48 257.704632 
L 258.48 257.671368 
L 262.944 257.671368 
L 262.944 254.3616 
z
" clip-path="url(#p181e331b6d)" style="fill: #0000ff; stroke: #0000ff; stroke-width: 0.1; stroke-linejoin: miter"/>
   </g>
   <g id="patch_28">
    <path d="M 303.12 254.3616 
L 298.656 261.0144 
L 303.09768 261.0144 
L 303.09768 257.688 
L 303.14232 257.688 
L 303.14232 261.0144 
L 307.584 261.0144 
z
" clip-path="url(#p181e331b6d)" style="fill: #0000ff; stroke: #0000ff; stroke-width: 0.1; stroke-linejoin: miter"/>
   </g>
   <g id="patch_29">
    <path d="M 347.76 254.3616 
L 343.296 261.0144 
L 347.73768 261.0144 
L 347.73768 257.688 
L 347.78232 257.688 
L 347.78232 261.0144 
L 352.224 261.0144 
z
" clip-path="url(#p181e331b6d)" style="fill: #0000ff; stroke: #0000ff; stroke-width: 0.1; stroke-linejoin: miter"/>
   </g>
   <g id="matplotlib.axis_1">
    <g id="xtick_1">
     <g id="line2d_1">
      <path d="M 57.6 307.584 
L 57.6 41.472 
" clip-path="url(#p181e331b6d)" style="fill: none; stroke: #b0b0b0; stroke-width: 0.8; stroke-linecap: square"/>
     </g>
     <g id="line2d_2">
      <defs>
       <path id="mc7c21b1850" d="M 0 0 
L 0 3.5 
" style="stroke: #000000; stroke-width: 0.8"/>
      </defs>
      <g>
       <use xlink:href="#mc7c21b1850" x="57.6" y="307.584" style="stroke: #000000; stroke-width: 0.8"/>
      </g>
     </g>
     <g id="text_1">
      <!-- $\mathdefault{0}$ -->
      <g transform="translate(55.109332 321.502498)scale(0.1 -0.1)">
       <defs>
        <path id="CMR17-30" d="M 2688 2025 
C 2688 2416 2682 3080 2413 3591 
C 2176 4039 1798 4198 1466 4198 
C 1158 4198 768 4058 525 3597 
C 269 3118 243 2524 243 2025 
C 243 1661 250 1106 448 619 
C 723 -39 1216 -128 1466 -128 
C 1760 -128 2208 -7 2470 600 
C 2662 1042 2688 1559 2688 2025 
z
M 1466 -26 
C 1056 -26 813 325 723 812 
C 653 1188 653 1738 653 2096 
C 653 2588 653 2997 736 3387 
C 858 3929 1216 4096 1466 4096 
C 1728 4096 2067 3923 2189 3400 
C 2272 3036 2278 2607 2278 2096 
C 2278 1680 2278 1169 2202 792 
C 2067 95 1690 -26 1466 -26 
z
" transform="scale(0.015625)"/>
       </defs>
       <use xlink:href="#CMR17-30" transform="scale(0.996264)"/>
      </g>
     </g>
    </g>
    <g id="xtick_2">
     <g id="line2d_3">
      <path d="M 102.24 307.584 
L 102.24 41.472 
" clip-path="url(#p181e331b6d)" style="fill: none; stroke: #b0b0b0; stroke-width: 0.8; stroke-linecap: square"/>
     </g>
     <g id="line2d_4">
      <g>
       <use xlink:href="#mc7c21b1850" x="102.24" y="307.584" style="stroke: #000000; stroke-width: 0.8"/>
      </g>
     </g>
     <g id="text_2">
      <!-- $\mathdefault{1}$ -->
      <g transform="translate(99.749332 321.502498)scale(0.1 -0.1)">
       <defs>
        <path id="CMR17-31" d="M 1702 4058 
C 1702 4192 1696 4192 1606 4192 
C 1357 3916 979 3827 621 3827 
C 602 3827 570 3827 563 3808 
C 557 3795 557 3782 557 3648 
C 755 3648 1088 3686 1344 3839 
L 1344 461 
C 1344 236 1331 160 781 160 
L 589 160 
L 589 0 
C 896 0 1216 0 1523 0 
C 1830 0 2150 0 2458 0 
L 2458 160 
L 2266 160 
C 1715 160 1702 230 1702 458 
L 1702 4058 
z
" transform="scale(0.015625)"/>
       </defs>
       <use xlink:href="#CMR17-31" transform="scale(0.996264)"/>
      </g>
     </g>
    </g>
    <g id="xtick_3">
     <g id="line2d_5">
      <path d="M 146.88 307.584 
L 146.88 41.472 
" clip-path="url(#p181e331b6d)" style="fill: none; stroke: #b0b0b0; stroke-width: 0.8; stroke-linecap: square"/>
     </g>
     <g id="line2d_6">
      <g>
       <use xlink:href="#mc7c21b1850" x="146.88" y="307.584" style="stroke: #000000; stroke-width: 0.8"/>
      </g>
     </g>
     <g id="text_3">
      <!-- $\mathdefault{2}$ -->
      <g transform="translate(144.389332 321.502498)scale(0.1 -0.1)">
       <defs>
        <path id="CMR17-32" d="M 2669 989 
L 2554 989 
C 2490 536 2438 459 2413 420 
C 2381 369 1920 369 1830 369 
L 602 369 
C 832 619 1280 1072 1824 1597 
C 2214 1967 2669 2402 2669 3035 
C 2669 3790 2067 4224 1395 4224 
C 691 4224 262 3604 262 3030 
C 262 2780 448 2748 525 2748 
C 589 2748 781 2787 781 3010 
C 781 3207 614 3264 525 3264 
C 486 3264 448 3258 422 3245 
C 544 3790 915 4058 1306 4058 
C 1862 4058 2227 3617 2227 3035 
C 2227 2479 1901 2000 1536 1584 
L 262 146 
L 262 0 
L 2515 0 
L 2669 989 
z
" transform="scale(0.015625)"/>
       </defs>
       <use xlink:href="#CMR17-32" transform="scale(0.996264)"/>
      </g>
     </g>
    </g>
    <g id="xtick_4">
     <g id="line2d_7">
      <path d="M 191.52 307.584 
L 191.52 41.472 
" clip-path="url(#p181e331b6d)" style="fill: none; stroke: #b0b0b0; stroke-width: 0.8; stroke-linecap: square"/>
     </g>
     <g id="line2d_8">
      <g>
       <use xlink:href="#mc7c21b1850" x="191.52" y="307.584" style="stroke: #000000; stroke-width: 0.8"/>
      </g>
     </g>
     <g id="text_4">
      <!-- $\mathdefault{3}$ -->
      <g transform="translate(189.029332 321.502498)scale(0.1 -0.1)">
       <defs>
        <path id="CMR17-33" d="M 1414 2157 
C 1984 2157 2234 1662 2234 1090 
C 2234 320 1824 25 1453 25 
C 1114 25 563 194 390 693 
C 422 680 454 680 486 680 
C 640 680 755 782 755 948 
C 755 1133 614 1216 486 1216 
C 378 1216 211 1165 211 926 
C 211 335 787 -128 1466 -128 
C 2176 -128 2720 430 2720 1085 
C 2720 1707 2208 2157 1600 2227 
C 2086 2328 2554 2756 2554 3329 
C 2554 3820 2048 4179 1472 4179 
C 890 4179 378 3829 378 3329 
C 378 3110 544 3072 627 3072 
C 762 3072 877 3155 877 3321 
C 877 3486 762 3569 627 3569 
C 602 3569 570 3569 544 3557 
C 730 3959 1235 4032 1459 4032 
C 1683 4032 2106 3925 2106 3320 
C 2106 3143 2080 2828 1862 2550 
C 1670 2304 1453 2304 1242 2284 
C 1210 2284 1062 2269 1037 2269 
C 992 2263 966 2257 966 2208 
C 966 2163 973 2157 1101 2157 
L 1414 2157 
z
" transform="scale(0.015625)"/>
       </defs>
       <use xlink:href="#CMR17-33" transform="scale(0.996264)"/>
      </g>
     </g>
    </g>
    <g id="xtick_5">
     <g id="line2d_9">
      <path d="M 236.16 307.584 
L 236.16 41.472 
" clip-path="url(#p181e331b6d)" style="fill: none; stroke: #b0b0b0; stroke-width: 0.8; stroke-linecap: square"/>
     </g>
     <g id="line2d_10">
      <g>
       <use xlink:href="#mc7c21b1850" x="236.16" y="307.584" style="stroke: #000000; stroke-width: 0.8"/>
      </g>
     </g>
     <g id="text_5">
      <!-- $\mathdefault{4}$ -->
      <g transform="translate(233.669332 321.502498)scale(0.1 -0.1)">
       <defs>
        <path id="CMR17-34" d="M 2150 4122 
C 2150 4256 2144 4256 2029 4256 
L 128 1254 
L 128 1088 
L 1779 1088 
L 1779 457 
C 1779 224 1766 160 1318 160 
L 1197 160 
L 1197 0 
C 1402 0 1747 0 1965 0 
C 2182 0 2528 0 2733 0 
L 2733 160 
L 2611 160 
C 2163 160 2150 224 2150 457 
L 2150 1088 
L 2803 1088 
L 2803 1254 
L 2150 1254 
L 2150 4122 
z
M 1798 3703 
L 1798 1254 
L 256 1254 
L 1798 3703 
z
" transform="scale(0.015625)"/>
       </defs>
       <use xlink:href="#CMR17-34" transform="scale(0.996264)"/>
      </g>
     </g>
    </g>
    <g id="xtick_6">
     <g id="line2d_11">
      <path d="M 280.8 307.584 
L 280.8 41.472 
" clip-path="url(#p181e331b6d)" style="fill: none; stroke: #b0b0b0; stroke-width: 0.8; stroke-linecap: square"/>
     </g>
     <g id="line2d_12">
      <g>
       <use xlink:href="#mc7c21b1850" x="280.8" y="307.584" style="stroke: #000000; stroke-width: 0.8"/>
      </g>
     </g>
     <g id="text_6">
      <!-- $\mathdefault{5}$ -->
      <g transform="translate(278.309332 321.502498)scale(0.1 -0.1)">
       <defs>
        <path id="CMR17-35" d="M 730 3692 
C 794 3666 1056 3584 1325 3584 
C 1920 3584 2246 3911 2432 4100 
C 2432 4157 2432 4192 2394 4192 
C 2387 4192 2374 4192 2323 4163 
C 2099 4058 1837 3973 1517 3973 
C 1325 3973 1037 3999 723 4139 
C 653 4171 640 4171 634 4171 
C 602 4171 595 4164 595 4037 
L 595 2203 
C 595 2089 595 2057 659 2057 
C 691 2057 704 2070 736 2114 
C 941 2401 1222 2522 1542 2522 
C 1766 2522 2246 2382 2246 1289 
C 2246 1085 2246 715 2054 421 
C 1894 159 1645 25 1370 25 
C 947 25 518 320 403 814 
C 429 807 480 795 506 795 
C 589 795 749 840 749 1038 
C 749 1210 627 1280 506 1280 
C 358 1280 262 1190 262 1011 
C 262 454 704 -128 1382 -128 
C 2042 -128 2669 440 2669 1264 
C 2669 2030 2170 2624 1549 2624 
C 1222 2624 947 2503 730 2274 
L 730 3692 
z
" transform="scale(0.015625)"/>
       </defs>
       <use xlink:href="#CMR17-35" transform="scale(0.996264)"/>
      </g>
     </g>
    </g>
    <g id="xtick_7">
     <g id="line2d_13">
      <path d="M 325.44 307.584 
L 325.44 41.472 
" clip-path="url(#p181e331b6d)" style="fill: none; stroke: #b0b0b0; stroke-width: 0.8; stroke-linecap: square"/>
     </g>
     <g id="line2d_14">
      <g>
       <use xlink:href="#mc7c21b1850" x="325.44" y="307.584" style="stroke: #000000; stroke-width: 0.8"/>
      </g>
     </g>
     <g id="text_7">
      <!-- $\mathdefault{6}$ -->
      <g transform="translate(322.949332 321.502498)scale(0.1 -0.1)">
       <defs>
        <path id="CMR17-36" d="M 678 2176 
C 678 3690 1395 4032 1811 4032 
C 1946 4032 2272 4009 2400 3776 
C 2298 3776 2106 3776 2106 3553 
C 2106 3381 2246 3323 2336 3323 
C 2394 3323 2566 3348 2566 3560 
C 2566 3954 2246 4179 1805 4179 
C 1043 4179 243 3390 243 1984 
C 243 253 966 -128 1478 -128 
C 2099 -128 2688 427 2688 1283 
C 2688 2081 2170 2662 1517 2662 
C 1126 2662 838 2407 678 1960 
L 678 2176 
z
M 1478 25 
C 691 25 691 1200 691 1436 
C 691 1896 909 2560 1504 2560 
C 1613 2560 1926 2560 2138 2120 
C 2253 1870 2253 1609 2253 1289 
C 2253 944 2253 690 2118 434 
C 1978 171 1773 25 1478 25 
z
" transform="scale(0.015625)"/>
       </defs>
       <use xlink:href="#CMR17-36" transform="scale(0.996264)"/>
      </g>
     </g>
    </g>
    <g id="xtick_8">
     <g id="line2d_15">
      <path d="M 370.08 307.584 
L 370.08 41.472 
" clip-path="url(#p181e331b6d)" style="fill: none; stroke: #b0b0b0; stroke-width: 0.8; stroke-linecap: square"/>
     </g>
     <g id="line2d_16">
      <g>
       <use xlink:href="#mc7c21b1850" x="370.08" y="307.584" style="stroke: #000000; stroke-width: 0.8"/>
      </g>
     </g>
     <g id="text_8">
      <!-- $\mathdefault{7}$ -->
      <g transform="translate(367.589332 321.502498)scale(0.1 -0.1)">
       <defs>
        <path id="CMR17-37" d="M 2886 3941 
L 2886 4081 
L 1382 4081 
C 634 4081 621 4165 595 4288 
L 480 4288 
L 294 3094 
L 410 3094 
C 429 3215 474 3540 550 3661 
C 589 3712 1062 3712 1171 3712 
L 2579 3712 
L 1869 2661 
C 1395 1954 1069 999 1069 165 
C 1069 89 1069 -128 1299 -128 
C 1530 -128 1530 89 1530 171 
L 1530 465 
C 1530 1508 1709 2196 2003 2636 
L 2886 3941 
z
" transform="scale(0.015625)"/>
       </defs>
       <use xlink:href="#CMR17-37" transform="scale(0.996264)"/>
      </g>
     </g>
    </g>
   </g>
   <g id="matplotlib.axis_2">
    <g id="ytick_1">
     <g id="line2d_17">
      <path d="M 57.6 41.472 
L 414.72 41.472 
" clip-path="url(#p181e331b6d)" style="fill: none; stroke: #b0b0b0; stroke-width: 0.8; stroke-linecap: square"/>
     </g>
     <g id="line2d_18">
      <defs>
       <path id="me9406fc484" d="M 0 0 
L -3.5 0 
" style="stroke: #000000; stroke-width: 0.8"/>
      </defs>
      <g>
       <use xlink:href="#me9406fc484" x="57.6" y="41.472" style="stroke: #000000; stroke-width: 0.8"/>
      </g>
     </g>
     <g id="text_9">
      <!-- $\mathdefault{0}$ -->
      <g transform="translate(45.618665 44.931249)scale(0.1 -0.1)">
       <use xlink:href="#CMR17-30" transform="scale(0.996264)"/>
      </g>
     </g>
    </g>
    <g id="ytick_2">
     <g id="line2d_19">
      <path d="M 57.6 74.736 
L 414.72 74.736 
" clip-path="url(#p181e331b6d)" style="fill: none; stroke: #b0b0b0; stroke-width: 0.8; stroke-linecap: square"/>
     </g>
     <g id="line2d_20">
      <g>
       <use xlink:href="#me9406fc484" x="57.6" y="74.736" style="stroke: #000000; stroke-width: 0.8"/>
      </g>
     </g>
     <g id="text_10">
      <!-- $\mathdefault{1}$ -->
      <g transform="translate(45.618665 78.195249)scale(0.1 -0.1)">
       <use xlink:href="#CMR17-31" transform="scale(0.996264)"/>
      </g>
     </g>
    </g>
    <g id="ytick_3">
     <g id="line2d_21">
      <path d="M 57.6 108 
L 414.72 108 
" clip-path="url(#p181e331b6d)" style="fill: none; stroke: #b0b0b0; stroke-width: 0.8; stroke-linecap: square"/>
     </g>
     <g id="line2d_22">
      <g>
       <use xlink:href="#me9406fc484" x="57.6" y="108" style="stroke: #000000; stroke-width: 0.8"/>
      </g>
     </g>
     <g id="text_11">
      <!-- $\mathdefault{2}$ -->
      <g transform="translate(45.618665 111.459249)scale(0.1 -0.1)">
       <use xlink:href="#CMR17-32" transform="scale(0.996264)"/>
      </g>
     </g>
    </g>
    <g id="ytick_4">
     <g id="line2d_23">
      <path d="M 57.6 141.264 
L 414.72 141.264 
" clip-path="url(#p181e331b6d)" style="fill: none; stroke: #b0b0b0; stroke-width: 0.8; stroke-linecap: square"/>
     </g>
     <g id="line2d_24">
      <g>
       <use xlink:href="#me9406fc484" x="57.6" y="141.264" style="stroke: #000000; stroke-width: 0.8"/>
      </g>
     </g>
     <g id="text_12">
      <!-- $\mathdefault{3}$ -->
      <g transform="translate(45.618665 144.723249)scale(0.1 -0.1)">
       <use xlink:href="#CMR17-33" transform="scale(0.996264)"/>
      </g>
     </g>
    </g>
    <g id="ytick_5">
     <g id="line2d_25">
      <path d="M 57.6 174.528 
L 414.72 174.528 
" clip-path="url(#p181e331b6d)" style="fill: none; stroke: #b0b0b0; stroke-width: 0.8; stroke-linecap: square"/>
     </g>
     <g id="line2d_26">
      <g>
       <use xlink:href="#me9406fc484" x="57.6" y="174.528" style="stroke: #000000; stroke-width: 0.8"/>
      </g>
     </g>
     <g id="text_13">
      <!-- $\mathdefault{4}$ -->
      <g transform="translate(45.618665 177.987249)scale(0.1 -0.1)">
       <use xlink:href="#CMR17-34" transform="scale(0.996264)"/>
      </g>
     </g>
    </g>
    <g id="ytick_6">
     <g id="line2d_27">
      <path d="M 57.6 207.792 
L 414.72 207.792 
" clip-path="url(#p181e331b6d)" style="fill: none; stroke: #b0b0b0; stroke-width: 0.8; stroke-linecap: square"/>
     </g>
     <g id="line2d_28">
      <g>
       <use xlink:href="#me9406fc484" x="57.6" y="207.792" style="stroke: #000000; stroke-width: 0.8"/>
      </g>
     </g>
     <g id="text_14">
      <!-- $\mathdefault{5}$ -->
      <g transform="translate(45.618665 211.251249)scale(0.1 -0.1)">
       <use xlink:href="#CMR17-35" transform="scale(0.996264)"/>
      </g>
     </g>
    </g>
    <g id="ytick_7">
     <g id="line2d_29">
      <path d="M 57.6 241.056 
L 414.72 241.056 
" clip-path="url(#p181e331b6d)" style="fill: none; stroke: #b0b0b0; stroke-width: 0.8; stroke-linecap: square"/>
     </g>
     <g id="line2d_30">
      <g>
       <use xlink:href="#me9406fc484" x="57.6" y="241.056" style="stroke: #000000; stroke-width: 0.8"/>
      </g>
     </g>
     <g id="text_15">
      <!-- $\mathdefault{6}$ -->
      <g transform="translate(45.618665 244.515249)scale(0.1 -0.1)">
       <use xlink:href="#CMR17-36" transform="scale(0.996264)"/>
      </g>
     </g>
    </g>
    <g id="ytick_8">
     <g id="line2d_31">
      <path d="M 57.6 274.32 
L 414.72 274.32 
" clip-path="url(#p181e331b6d)" style="fill: none; stroke: #b0b0b0; stroke-width: 0.8; stroke-linecap: square"/>
     </g>
     <g id="line2d_32">
      <g>
       <use xlink:href="#me9406fc484" x="57.6" y="274.32" style="stroke: #000000; stroke-width: 0.8"/>
      </g>
     </g>
     <g id="text_16">
      <!-- $\mathdefault{7}$ -->
      <g transform="translate(45.618665 277.779249)scale(0.1 -0.1)">
       <use xlink:href="#CMR17-37" transform="scale(0.996264)"/>
      </g>
     </g>
    </g>
   </g>
   <g id="patch_30">
    <path d="M 57.6 307.584 
L 57.6 41.472 
" style="fill: none; stroke: #000000; stroke-width: 0.8; stroke-linejoin: miter; stroke-linecap: square"/>
   </g>
   <g id="patch_31">
    <path d="M 414.72 307.584 
L 414.72 41.472 
" style="fill: none; stroke: #000000; stroke-width: 0.8; stroke-linejoin: miter; stroke-linecap: square"/>
   </g>
   <g id="patch_32">
    <path d="M 57.6 307.584 
L 414.72 307.584 
" style="fill: none; stroke: #000000; stroke-width: 0.8; stroke-linejoin: miter; stroke-linecap: square"/>
   </g>
   <g id="patch_33">
    <path d="M 57.6 41.472 
L 414.72 41.472 
" style="fill: none; stroke: #000000; stroke-width: 0.8; stroke-linejoin: miter; stroke-linecap: square"/>
   </g>
   <g id="text_17">
    <!-- I -->
    <g transform="translate(169.2 98.0208)scale(0.22 -0.22)">
     <defs>
      <path id="CMSS17-49" d="M 1094 4416 
L 557 4416 
L 557 0 
L 1094 0 
L 1094 4416 
z
" transform="scale(0.015625)"/>
     </defs>
     <use xlink:href="#CMSS17-49" transform="scale(0.996264)"/>
    </g>
   </g>
   <g id="text_18">
    <!-- G -->
    <g transform="translate(169.2 264.3408)scale(0.22 -0.22)">
     <defs>
      <path id="CMSS17-47" d="M 3610 1856 
L 2336 1856 
L 2336 1461 
L 3123 1461 
L 3123 471 
C 2874 401 2618 350 2362 350 
C 1466 350 934 1301 934 2200 
C 934 3095 1491 4032 2362 4032 
C 2854 4032 3130 3881 3469 3627 
L 3552 4134 
C 3130 4351 2867 4440 2387 4440 
C 1146 4440 397 3324 397 2182 
C 397 1090 1152 -64 2349 -64 
C 2797 -64 3213 51 3610 248 
L 3610 1856 
z
" transform="scale(0.015625)"/>
     </defs>
     <use xlink:href="#CMSS17-47" transform="scale(0.996264)"/>
    </g>
   </g>
  </g>
 </g>
 <defs>
  <clipPath id="p181e331b6d">
   <rect x="57.6" y="41.472" width="357.12" height="266.112"/>
  </clipPath>
 </defs>
</svg>
